<?xml version="1.0" standalone="no"?>
<!DOCTYPE svg PUBLIC "-//W3C//DTD SVG 20010904//EN"
 "http://www.w3.org/TR/2001/REC-SVG-20010904/DTD/svg10.dtd">
<svg version="1.0" xmlns="http://www.w3.org/2000/svg"
 width="654.000000pt" height="424.000000pt" viewBox="0 0 654.000000 424.000000"
 preserveAspectRatio="xMidYMid meet">

<g transform="translate(0.000000,424.000000) scale(0.100000,-0.100000)"
fill="#000000" stroke="none">
<path d="M0 2120 l0 -2120 3270 0 3270 0 0 2120 0 2120 -3270 0 -3270 0 0
-2120z m1930 370 c39 -39 14 -140 -35 -140 -50 0 -72 86 -34 134 25 31 42 33
69 6z m158 -32 c22 -22 14 -86 -13 -113 -46 -47 -102 -21 -91 44 9 59 72 101
104 69z m-272 -79 c25 -50 3 -109 -41 -109 -28 0 -43 17 -51 58 -15 72 60 113
92 51z m201 -151 c41 -81 43 -89 31 -115 -18 -37 -51 -42 -133 -20 -116 32
-139 42 -154 68 -24 42 -8 73 51 103 29 15 68 38 87 51 46 34 61 23 118 -87z
m141 51 c5 -62 -59 -114 -96 -77 -19 19 -14 62 9 92 16 21 28 26 53 24 28 -3
31 -7 34 -39z m-534 -161 c20 -28 20 -72 1 -88 -40 -33 -100 33 -77 85 15 32
55 33 76 3z m114 -40 c19 -19 15 -85 -5 -97 -39 -21 -81 36 -63 84 10 27 47
34 68 13z m-215 -40 c14 -18 18 -34 13 -52 -14 -56 -106 -17 -106 44 0 35 8
42 44 38 17 -2 37 -13 49 -30z m144 -70 c122 -38 135 -83 40 -136 -28 -16 -66
-37 -83 -47 -38 -23 -80 -14 -96 20 -8 18 -7 33 6 65 9 22 16 53 16 68 0 30
16 52 37 52 7 0 43 -10 80 -22z m-163 -61 c24 -32 14 -60 -23 -65 -42 -7 -91
64 -64 92 16 16 67 0 87 -27z"/>
</g>
</svg>
